<svg width="65" height="72" viewBox="0 0 65 72" fill="none" xmlns="http://www.w3.org/2000/svg">
<path d="M57.9321 0C60.0032 0 61.6821 1.67893 61.6821 3.75C61.6821 5.82107 60.0032 7.5 57.9321 7.5H49.3364C45.9393 7.5 43.6402 10.9629 44.9585 14.0938C45.7002 15.8549 47.4254 17 49.3364 17H52.1821C53.839 17 55.1821 18.3431 55.1821 20V20.1387C55.1821 21.7189 53.901 23 52.3208 23C50.3205 23.0003 48.9375 25.0007 49.644 26.8721L64.3862 65.9189C65.4959 68.8583 63.3239 72 60.1821 72H54.6479C52.5638 72 50.6982 70.7072 49.9663 68.7559L44.8989 55.2441C44.167 53.2928 42.3014 52 40.2173 52H17.7299C15.6052 52 13.7121 53.3432 13.0102 55.3486L8.16647 69.1875C7.57695 70.8719 5.98715 72 4.20261 72C1.28161 71.9997 -0.746776 69.0909 0.262176 66.3496L23.478 3.27344C24.2018 1.30701 26.075 0 28.1704 0H57.9321ZM19.1821 43.5H43.1821L31.1821 10.5L19.1821 43.5Z" fill="#6A4C93"/>
</svg>
